<?xml version="1.0" encoding="UTF-8" standalone="no"?>
<svg
   xmlns:dc="http://purl.org/dc/elements/1.1/"
   xmlns:cc="http://creativecommons.org/ns#"
   xmlns:rdf="http://www.w3.org/1999/02/22-rdf-syntax-ns#"
   xmlns:svg="http://www.w3.org/2000/svg"
   xmlns="http://www.w3.org/2000/svg"
   version="1.1"
   id="svg3891"
   height="2048"
   width="2048">
  <defs
     id="defs3893" />
  <metadata
     id="metadata3896">
    <rdf:RDF>
      <cc:Work
         rdf:about="">
        <dc:format>image/svg+xml</dc:format>
        <dc:type
           rdf:resource="http://purl.org/dc/dcmitype/StillImage" />
        <dc:title></dc:title>
      </cc:Work>
    </rdf:RDF>
  </metadata>
  <g
     transform="translate(0,995.63783)"
     id="layer1">
    <path
       id="rect3804"
       transform="translate(0,-995.63783)"
       d="M 1607.0391 249 C 1598.4724 249.01 1589.8806 248.99982 1581.2637 250.1582 L 442.99219 250.1582 C 251.23167 245.04205 82.194182 424.03972 98.798828 615.13281 C 99.09833 901.52146 98.213035 1187.9296 99.267578 1474.3086 C 104.71333 1662.2258 286.37683 1814.9759 471.91992 1797.6582 C 855.5782 1797.6582 1239.2416 1798.6235 1622.8906 1797.6582 C 1808.0947 1792.9282 1962.3839 1616.828 1946.5508 1433.1582 C 1946.261 1146.7696 1947.151 860.35167 1946.1172 573.97266 C 1941.6411 397.61024 1781.2356 249.28925 1607.041 249.47266 L 1607.0391 249 z M 1181.9004 400.45703 C 1329.6791 400.44703 1477.4472 400.45769 1625.2012 401.51953 C 1733.559 407.79406 1808.3512 516.07283 1795.5801 619.51562 C 1794.9521 905.0548 1796.8686 1190.6517 1794.6426 1476.1426 C 1788.3665 1584.4119 1679.9855 1659.1755 1576.457 1646.4141 C 1507.7929 1646.2416 1439.1251 1646.1904 1370.457 1646.1777 L 1370.457 1017.6445 L 677.54297 1017.6445 L 677.54297 1049.3809 L 677.54297 1646.3438 C 592.73907 1646.2043 507.93812 1645.939 423.14453 1645.4492 C 314.7396 1639.0782 236.76324 1531.9578 249.76953 1427.4531 C 250.42458 1141.9139 248.43171 856.28779 250.73633 570.79688 C 258.33715 474.36225 347.24005 398.43112 442.99219 400.56445 C 689.27916 401.52976 935.60069 400.52509 1181.8984 400.49609 L 1181.9004 400.45703 z M 741.01562 1081.1172 L 1306.9844 1081.1172 L 1306.9844 1646.1699 C 1118.3274 1646.2224 929.66317 1646.5984 741.01562 1646.4258 L 741.01562 1081.1172 z M 976.52148 1161.6191 L 976.52148 1209.0996 L 976.52148 1319.3203 L 866.29688 1319.3203 L 818.81641 1319.3203 L 818.81641 1414.2832 L 866.29688 1414.2832 L 976.52148 1414.2832 L 976.52148 1524.5098 L 976.52148 1571.9844 L 1071.4785 1571.9844 L 1071.4785 1524.5098 L 1071.4785 1414.2832 L 1181.7031 1414.2832 L 1229.1836 1414.2832 L 1229.1836 1319.3203 L 1181.7031 1319.3203 L 1071.4785 1319.3203 L 1071.4785 1209.0996 L 1071.4785 1161.6191 L 976.52148 1161.6191 z "
       style="font-size:medium;font-style:normal;font-variant:normal;font-weight:normal;font-stretch:normal;text-indent:0;text-align:start;text-decoration:none;line-height:normal;letter-spacing:normal;word-spacing:normal;text-transform:none;direction:ltr;block-progression:tb;writing-mode:lr-tb;text-anchor:start;baseline-shift:baseline;color:#000000;fill:#000000;fill-opacity:1;stroke:none;stroke-width:1.55755734;marker:none;visibility:visible;display:inline;overflow:visible;enable-background:accumulate;font-family:Sans;-inkscape-font-specification:Sans" />
  </g>
</svg>
