<?xml version="1.0" encoding="UTF-8" standalone="no"?>
<svg
   xmlns:dc="http://purl.org/dc/elements/1.1/"
   xmlns:cc="http://creativecommons.org/ns#"
   xmlns:rdf="http://www.w3.org/1999/02/22-rdf-syntax-ns#"
   xmlns:svg="http://www.w3.org/2000/svg"
   xmlns="http://www.w3.org/2000/svg"
   version="1.1"
   id="svg3891"
   height="2048"
   width="2048">
  <defs
     id="defs3893" />
  <metadata
     id="metadata3896">
    <rdf:RDF>
      <cc:Work
         rdf:about="">
        <dc:format>image/svg+xml</dc:format>
        <dc:type
           rdf:resource="http://purl.org/dc/dcmitype/StillImage" />
        <dc:title></dc:title>
      </cc:Work>
    </rdf:RDF>
  </metadata>
  <g
     transform="translate(0,995.63783)"
     id="layer1">
    <g
       style="display:inline"
       id="layer1-6"
       transform="matrix(96.752895,0,0,96.752895,55.328158,-100816.34)">
      <path
         id="rect4089"
         d="m 7.6269532,1033.893 c 0,0.4337 0,0.8674 0,1.3011 -0.5852882,-0.035 -1.1228659,0.2636 -1.6855104,0.387 -0.9876703,0.2891 -1.9753406,0.5781 -2.9630109,0.8672 0.067661,0.2008 -0.1652682,0.7022 0.1777887,0.6276 4.6296588,0 9.2593174,0 13.8889764,0 -0.065,-0.2196 0.158765,-0.6563 -0.170793,-0.677 -1.404381,-0.3975 -2.804084,-0.8279 -4.21138,-1.2048 -0.404434,0.123 -0.232262,-0.3305 -0.266348,-0.5778 -0.05706,-0.2137 0.115979,-0.6575 -0.08889,-0.7233 -1.560276,0 -3.1205517,0 -4.6808278,0 z m -4.1972669,4.4742 c -0.0033,0 0.00355,0 0,0 z m 2.421e-4,0 c 0.444115,4.2428 0.8882301,8.4856 1.332345,12.7285 3.5304184,0 7.0608376,0 10.5912556,0 0.409393,-4.2429 0.818787,-8.4857 1.22818,-12.7285 -4.383926,0 -8.7678537,0 -13.1517806,0 z m 1.4919413,1.3414 c 3.3951872,0 6.7903753,0 10.1855613,0 -0.324218,3.347 -0.648438,6.694 -0.972657,10.0411 -2.719402,0 -5.4388051,0 -8.1582078,0 -0.3515655,-3.3471 -0.703131,-6.6941 -1.0546965,-10.0411 z m 2.1396127,1.0975 c -0.5028416,-0.038 -0.7845937,0.5227 -0.6284294,0.9546 0.3141214,2.2219 0.612125,4.4468 0.9363243,6.6668 0.1416757,0.6073 1.106931,0.5917 1.2289491,-0.02 0.021095,-0.6078 -0.1483951,-1.2146 -0.2058602,-1.8219 -0.2556948,-1.781 -0.4833007,-3.5676 -0.7565875,-5.3451 -0.078783,-0.2451 -0.317086,-0.4254 -0.5743963,-0.4346 z m 5.9443886,10e-5 c -0.474088,-0.025 -0.694036,0.4612 -0.689491,0.8668 -0.301877,2.1936 -0.620214,4.3858 -0.911799,6.5804 -0.02974,0.6229 0.903001,0.8718 1.187555,0.3169 0.186453,-0.5789 0.189661,-1.2089 0.300556,-1.8087 0.241392,-1.783 0.511934,-3.5636 0.735071,-5.3481 -0.0091,-0.3256 -0.29603,-0.6059 -0.621892,-0.6073 z"
         style="color:#000000;font-style:normal;font-variant:normal;font-weight:normal;font-stretch:normal;font-size:medium;line-height:normal;font-family:sans-serif;text-indent:0;text-align:start;text-decoration:none;text-decoration-line:none;text-decoration-style:solid;text-decoration-color:#000000;letter-spacing:normal;word-spacing:normal;text-transform:none;direction:ltr;block-progression:tb;writing-mode:lr-tb;baseline-shift:baseline;text-anchor:start;white-space:normal;clip-rule:nonzero;display:inline;overflow:visible;visibility:visible;opacity:1;isolation:auto;mix-blend-mode:normal;color-interpolation:sRGB;color-interpolation-filters:linearRGB;solid-color:#000000;solid-opacity:1;fill:#000000;fill-opacity:1;fill-rule:nonzero;stroke:none;stroke-width:1.343629;stroke-linecap:round;stroke-linejoin:miter;stroke-miterlimit:4;stroke-dasharray:none;stroke-dashoffset:0;stroke-opacity:1;color-rendering:auto;image-rendering:auto;shape-rendering:auto;text-rendering:auto;enable-background:accumulate" />
    </g>
  </g>
</svg>
