<?xml version="1.0" encoding="UTF-8" standalone="no"?>
<!-- Created with Inkscape (http://www.inkscape.org/) -->

<svg
   xmlns:dc="http://purl.org/dc/elements/1.1/"
   xmlns:cc="http://creativecommons.org/ns#"
   xmlns:rdf="http://www.w3.org/1999/02/22-rdf-syntax-ns#"
   xmlns:svg="http://www.w3.org/2000/svg"
   xmlns="http://www.w3.org/2000/svg"
   xmlns:sodipodi="http://sodipodi.sourceforge.net/DTD/sodipodi-0.dtd"
   xmlns:inkscape="http://www.inkscape.org/namespaces/inkscape"
   width="2048"
   height="2048"
   id="svg3891"
   version="1.1"
   inkscape:version="0.91 r13725"
   sodipodi:docname="subprocess-collapsed.svg"
   inkscape:export-filename="/home/nikku/camunda/projects/bpmn.io/bpmn-font/raw/subprocess-collapsed.png"
   inkscape:export-xdpi="0.88"
   inkscape:export-ydpi="0.88">
  <defs
     id="defs3893">
    <inkscape:path-effect
       effect="spiro"
       id="path-effect3840"
       is_visible="true" />
    <inkscape:path-effect
       effect="spiro"
       id="path-effect3836"
       is_visible="true" />
    <inkscape:path-effect
       effect="spiro"
       id="path-effect3836-9"
       is_visible="true" />
  </defs>
  <sodipodi:namedview
     id="base"
     pagecolor="#ffffff"
     bordercolor="#666666"
     borderopacity="1.0"
     inkscape:pageopacity="0.0"
     inkscape:pageshadow="2"
     inkscape:zoom="0.24748737"
     inkscape:cx="-593.20549"
     inkscape:cy="1006.1462"
     inkscape:document-units="px"
     inkscape:current-layer="layer1"
     showgrid="false"
     inkscape:window-width="1596"
     inkscape:window-height="825"
     inkscape:window-x="0"
     inkscape:window-y="73"
     inkscape:window-maximized="0" />
  <metadata
     id="metadata3896">
    <rdf:RDF>
      <cc:Work
         rdf:about="">
        <dc:format>image/svg+xml</dc:format>
        <dc:type
           rdf:resource="http://purl.org/dc/dcmitype/StillImage" />
        <dc:title />
      </cc:Work>
    </rdf:RDF>
  </metadata>
  <g
     inkscape:label="Layer 1"
     inkscape:groupmode="layer"
     id="layer1"
     transform="translate(0,995.63783)">
    <path
       inkscape:connector-curvature="0"
       d="m 1607.039,-746.63783 c -8.5667,0.01 -17.1585,0 -25.7754,1.15838 l -1138.27088,0 0,0 C 251.2322,-750.5956 82.195088,-571.59787 98.799734,-380.50478 c 0.299502,286.388643 -0.586449,572.7966 0.468094,859.17559 5.445752,187.91721 187.109012,340.66812 372.652102,323.35043 383.65828,0 767.32237,0.96531 1150.97137,0 185.2041,-4.73002 339.493,-180.83182 323.6599,-364.50166 -0.2898,-286.38865 0.599,-572.80625 -0.4348,-859.18526 -4.4761,-176.36242 -164.8807,-324.68255 -339.0753,-324.49914 z m -425.1392,151.4574 c 147.7787,-0.01 295.5466,0 443.3006,1.06184 108.3578,6.27453 183.1513,114.55353 170.3802,217.99632 -0.628,285.539174 1.2889,571.13627 -0.9371,856.62718 -6.2761,108.26934 -114.6581,183.03273 -218.1866,170.27131 -384.4263,-0.96531 -768.93355,1.25491 -1153.31172,-0.96531 -108.40493,-6.37106 -186.38221,-113.49169 -173.37592,-217.99632 0.65505,-285.53918 -1.33722,-571.16523 0.9674,-856.65614 7.60082,-96.43463 96.50289,-172.36603 192.25503,-170.2327 246.28697,0.96531 492.60936,-0.0386 738.90711,-0.0676 z"
       style="font-size:medium;font-style:normal;font-variant:normal;font-weight:normal;font-stretch:normal;text-indent:0;text-align:start;text-decoration:none;line-height:normal;letter-spacing:normal;word-spacing:normal;text-transform:none;direction:ltr;block-progression:tb;writing-mode:lr-tb;text-anchor:start;baseline-shift:baseline;color:#000000;fill:#000000;fill-opacity:1;stroke:none;stroke-width:1.55755734;marker:none;visibility:visible;display:inline;overflow:visible;enable-background:accumulate;font-family:Sans;-inkscape-font-specification:Sans"
       id="rect3804" />
    <path
       style="color:#000000;font-style:normal;font-variant:normal;font-weight:normal;font-stretch:normal;font-size:medium;line-height:normal;font-family:sans-serif;text-indent:0;text-align:start;text-decoration:none;text-decoration-line:none;text-decoration-style:solid;text-decoration-color:#000000;letter-spacing:normal;word-spacing:normal;text-transform:none;direction:ltr;block-progression:tb;writing-mode:lr-tb;baseline-shift:baseline;text-anchor:start;white-space:normal;clip-rule:nonzero;display:inline;overflow:visible;visibility:visible;opacity:1;isolation:auto;mix-blend-mode:normal;color-interpolation:sRGB;color-interpolation-filters:linearRGB;solid-color:#000000;solid-opacity:1;fill:#000000;fill-opacity:1;fill-rule:nonzero;stroke:none;stroke-width:63.47264862;stroke-linecap:butt;stroke-linejoin:miter;stroke-miterlimit:4;stroke-dasharray:none;stroke-dashoffset:0;stroke-opacity:1;color-rendering:auto;image-rendering:auto;shape-rendering:auto;text-rendering:auto;enable-background:accumulate"
       d="M 677.54297 1017.6445 L 677.54297 1049.3809 L 677.54297 1710.5586 L 1370.457 1710.5586 L 1370.457 1017.6445 L 677.54297 1017.6445 z M 741.01562 1081.1172 L 1306.9844 1081.1172 L 1306.9844 1647.0859 L 741.01562 1647.0859 L 741.01562 1081.1172 z M 976.52148 1161.6191 L 976.52148 1209.0996 L 976.52148 1319.3203 L 866.29688 1319.3203 L 818.81641 1319.3203 L 818.81641 1414.2832 L 866.29688 1414.2832 L 976.52148 1414.2832 L 976.52148 1524.5098 L 976.52148 1571.9844 L 1071.4785 1571.9844 L 1071.4785 1524.5098 L 1071.4785 1414.2832 L 1181.7031 1414.2832 L 1229.1836 1414.2832 L 1229.1836 1319.3203 L 1181.7031 1319.3203 L 1071.4785 1319.3203 L 1071.4785 1209.0996 L 1071.4785 1161.6191 L 976.52148 1161.6191 z "
       transform="translate(0,-995.63783)"
       id="rect3830" />
  </g>
</svg>
